<?xml version="1.0" encoding="UTF-8"?>
<!DOCTYPE svg PUBLIC "-//W3C//DTD SVG 1.1//EN" "http://www.w3.org/Graphics/SVG/1.1/DTD/svg11.dtd">
<svg version="1.1" xmlns="http://www.w3.org/2000/svg" xmlns:xlink="http://www.w3.org/1999/xlink" x="0" y="0" width="200" height="200" viewBox="0, 0, 200, 200">
  <defs>
    <linearGradient id="Gradient_1" gradientUnits="userSpaceOnUse" x1="100.079" y1="166.254" x2="100.079" y2="90.53">
      <stop offset="0" stop-color="#E9C4B1"/>
      <stop offset="1" stop-color="#F5E5BE"/>
    </linearGradient>
  </defs>
  <g id="Layer_2">
    <g id="sky">
      <path d="M100.079,90.53 C136.993,90.53 166.918,120.455 166.918,157.369 C166.785,162.632 166.947,159.667 166.279,166.254 L33.879,166.254 C33.211,159.667 33.373,162.632 33.24,157.369 C33.24,120.455 63.165,90.53 100.079,90.53 z" fill="url(#Gradient_1)"/>
      <path d="M110.587,100.262 C76.001,102.707 44.72,125.173 34.26,158.824 L34.225,157.369 C34.329,120.251 64.582,91.452 101.065,90.53 C115.709,90.73 130.667,95.236 142.088,104.661 C133.385,101.448 124.171,100.384 114.958,100.151 L110.587,100.262 z" fill="#DFBFAE"/>
      <path d="M168.397,140.654 C168.397,140.654 156.901,140.75 152.41,148.301 C139.002,144.401 124.823,156.34 124.71,162.779 C117.594,156.115 103.223,162.007 101.798,164.162 C100.373,166.317 101.46,166.254 101.46,166.254 L165.625,166.254 L168.397,140.654 z" fill="#FFFFFF" fill-opacity="0.449"/>
      <path d="M32.364,137.909 C37.039,138.005 40.871,140.016 44.309,143.035 C52.132,134.84 70.509,142.229 65.915,157.439 C70.941,158.627 75.659,161.487 77.987,166.254 L31.543,166.254 C31.287,166.047 31.031,165.841 30.774,165.634 L24.069,139.434 C26.684,138.228 29.539,138.045 32.364,137.909 z" fill="#FFFFFF" fill-opacity="0.449"/>
      <path d="M73.133,135.361 C72.929,135.355 72.569,132.637 72.334,132.291 C72.098,131.946 69.247,131.683 69.244,131.473 C69.241,131.263 71.939,131.058 72.298,130.793 C72.658,130.527 72.998,127.578 73.133,127.584 C73.268,127.59 73.747,130.451 74.002,130.757 C74.258,131.063 77.022,131.255 77.022,131.473 C77.021,131.691 74.315,131.828 73.904,132.196 C73.493,132.565 73.337,135.368 73.133,135.361 z" fill="#FFFFFF" fill-opacity="0.449"/>
      <path d="M132.468,117.537 C132.187,117.527 131.691,113.78 131.367,113.303 C131.042,112.827 127.11,112.464 127.106,112.174 C127.102,111.884 130.822,111.602 131.317,111.237 C131.813,110.871 132.283,106.804 132.468,106.812 C132.654,106.82 133.315,110.766 133.668,111.187 C134.02,111.609 137.832,111.874 137.831,112.174 C137.83,112.475 134.098,112.664 133.532,113.172 C132.966,113.68 132.75,117.546 132.468,117.537 z" fill="#FFFFFF" fill-opacity="0.449"/>
      <path d="M122.758,134.698 C122.611,134.694 122.351,132.731 122.181,132.482 C122.011,132.232 119.953,132.042 119.951,131.891 C119.948,131.739 121.896,131.591 122.156,131.4 C122.415,131.208 122.661,129.079 122.758,129.083 C122.856,129.087 123.202,131.153 123.386,131.374 C123.571,131.595 125.567,131.733 125.566,131.891 C125.566,132.048 123.612,132.147 123.315,132.413 C123.019,132.679 122.906,134.703 122.758,134.698 z" fill="#FFFFFF" fill-opacity="0.449"/>
      <path d="M92.194,110.016 C92.11,110.013 91.962,108.892 91.864,108.75 C91.767,108.607 90.591,108.499 90.59,108.412 C90.589,108.325 91.702,108.241 91.85,108.131 C91.998,108.022 92.138,106.805 92.194,106.808 C92.25,106.81 92.447,107.991 92.553,108.117 C92.658,108.243 93.799,108.322 93.798,108.412 C93.798,108.502 92.682,108.559 92.512,108.71 C92.343,108.862 92.278,110.019 92.194,110.016 z" fill="#FFFFFF" fill-opacity="0.449"/>
      <path d="M82.038,145.441 C81.712,145.441 81.447,145.176 81.447,144.85 C81.447,144.523 81.712,144.258 82.038,144.258 C82.365,144.258 82.63,144.523 82.63,144.85 C82.63,145.176 82.365,145.441 82.038,145.441 z" fill="#FFFFFF" fill-opacity="0.449"/>
      <path d="M135.174,140.654 C134.957,140.654 134.78,140.455 134.78,140.21 C134.78,139.965 134.957,139.766 135.174,139.766 C135.392,139.766 135.569,139.965 135.569,140.21 C135.569,140.455 135.392,140.654 135.174,140.654 z" fill="#FFFFFF" fill-opacity="0.449"/>
      <path d="M91.601,125.231 C91.274,125.231 91.009,124.966 91.009,124.639 C91.009,124.313 91.274,124.048 91.601,124.048 C91.927,124.048 92.192,124.313 92.192,124.639 C92.192,124.966 91.927,125.231 91.601,125.231 z" fill="#FFFFFF" fill-opacity="0.449"/>
      <path d="M150.381,127.584 C150.054,127.584 149.789,127.319 149.789,126.993 C149.789,126.666 150.054,126.401 150.381,126.401 C150.707,126.401 150.972,126.666 150.972,126.993 C150.972,127.319 150.707,127.584 150.381,127.584 z" fill="#FFFFFF" fill-opacity="0.449"/>
      <path d="M112.808,154.353 C112.312,154.353 111.909,153.951 111.909,153.454 C111.909,152.957 112.312,152.554 112.808,152.554 C113.305,152.554 113.708,152.957 113.708,153.454 C113.708,153.951 113.305,154.353 112.808,154.353 z" fill="#FFFFFF" fill-opacity="0.449"/>
    </g>
    <g id="box">
      <path d="M198.431,90.53 C198.431,90.53 152.131,115.925 152.131,115.925 C152.131,115.925 170.467,134.202 165.625,166.254 C185.254,154.609 198.431,147.313 198.431,147.313 L198.431,90.53 z" fill="#2C71BA"/>
      <path d="M1.727,90.53 C1.727,90.53 27.719,104.036 47.712,115.925 C69.913,88.459 116.641,75.249 152.131,115.925 C175.199,102.655 198.431,90.53 198.431,90.53 L100.079,33.746 L1.727,90.53 z" fill="#96DAEF"/>
      <path d="M1.569,90.53 C1.569,90.53 47.869,115.925 47.869,115.925 C47.869,115.925 30.625,134.72 34.375,166.254 C14.746,154.609 1.569,147.313 1.569,147.313 L1.569,90.53 z" fill="#4CA2D9"/>
      <path d="M100.579,34.246 L198.931,91.03 L198.931,147.813 L166.125,166.754 C166.855,159.556 166.689,162.719 166.827,157.277 C166.827,120.69 137.166,91.03 100.579,91.03 C63.991,91.03 34.331,120.69 34.331,157.277 C34.469,162.719 34.303,159.556 35.032,166.754 L2.226,147.813 L2.226,91.03 L100.579,34.246 z M166.125,166.754 L35.032,166.754" fill-opacity="0" stroke="#000000" stroke-width="1" stroke-linejoin="round"/>
      <path d="M198.931,91.03 L152.631,116.425 z" fill-opacity="0" stroke="#000000" stroke-width="1"/>
      <path d="M48.212,116.425 L2.227,91.03" fill-opacity="0" stroke="#000000" stroke-width="1"/>
    </g>
    <g id="buttons">
      <g>
        <path d="M8.562,109.659 L8.562,117.926 L5.375,116.219 L5.375,107.803 L8.562,109.659 z" fill="#78B3D9"/>
        <path d="M8.562,109.659 L8.562,117.926 L5.375,116.219 L5.375,107.803 L8.562,109.659 z" fill-opacity="0" stroke="#000000" stroke-width="0.75"/>
      </g>
      <path d="M8,108.766 L9.219,109.547 L9.25,119.328 L4.875,116.863 L4.469,115.969 C4.469,115.969 8.062,117.176 8.062,117.426 C8.062,117.676 8,108.766 8,108.766 z" fill="#000000" fill-opacity="0.304"/>
      <g>
        <path d="M8.562,98.837 L8.562,107.103 L5.375,105.396 L5.375,96.98 L8.562,98.837 z" fill="#78B3D9"/>
        <path d="M8.562,98.837 L8.562,107.103 L5.375,105.396 L5.375,96.98 L8.562,98.837 z" fill-opacity="0" stroke="#000000" stroke-width="0.75"/>
      </g>
      <path d="M8,97.92 L9.219,98.701 L9.25,108.535 L4.875,106.07 L4.469,105.175 C4.469,105.175 8.062,106.382 8.062,106.632 C8.062,106.882 8,97.92 8,97.92 z" fill="#000000" fill-opacity="0.304"/>
      <path d="M4.875,104.672 L5.5,104.984 L5.594,97.766 L8.062,98.703 L4.875,96.703 L4.875,104.672 z" fill="#000000" fill-opacity="0.304"/>
      <path d="M4.875,115.422 L5.5,115.734 L5.594,108.516 L8.062,109.453 L4.875,107.453 L4.875,115.422 z" fill="#000000" fill-opacity="0.304"/>
    </g>
    <g id="floppy">
      <path d="M8.844,121.762 L10.062,122.543 L10.094,149.289 L4.938,146.055 L4.469,144.742 C4.469,144.742 8.906,147.136 8.906,147.386 C8.906,147.636 8.844,121.762 8.844,121.762 z" fill="#000000" fill-opacity="0.304"/>
      <path d="M5.156,119.828 L9.5,122.641 L9.5,147.828 L5.156,145.141 L5.156,119.828 z" fill-opacity="0" stroke="#000000" stroke-width="0.5"/>
      <g>
        <path d="M6.411,122.748 L7.537,123.516 L7.537,131.352 L7.938,131.695 L7.938,137.742 L7.537,137.461 L7.537,144.908 L6.411,144.247 L6.411,136.742 L6.011,136.383 L6.016,130.367 L6.411,130.664 L6.411,122.748 z" fill="#78B3D9"/>
        <path d="M6.411,122.748 L7.537,123.516 L7.537,131.352 L7.938,131.695 L7.938,137.742 L7.537,137.461 L7.537,144.908 L6.411,144.247 L6.411,136.742 L6.011,136.383 L6.016,130.367 L6.411,130.664 L6.411,122.748 z" fill-opacity="0" stroke="#000000" stroke-width="0.5"/>
      </g>
      <path d="M6.844,123.469 C6.844,123.469 6.281,123.136 6.312,123.136 C6.344,123.136 6.281,130.969 6.281,130.969 L6,130.844 C6,130.844 5.875,135.563 5.906,135.563 C5.938,135.563 6.375,136.031 6.375,136.031 L6.375,143.875 L5.911,143.747 L5.911,136.242 L5.511,135.883 L5.516,129.867 L5.911,130.164 L5.911,122.248 L7.037,123.016 L6.844,123.469 z" fill="#000000" fill-opacity="0.3"/>
      <path d="M8.531,124.031 L8.531,127.656" fill-opacity="0" stroke="#000000" stroke-width="0.5"/>
    </g>
    <g id="lines">
      <path d="M15.406,108.938 L16.094,109.598 L16.125,145.969 L15.031,145.441 C15.125,144.534 15.406,108.938 15.406,108.938 z" fill="#000000" fill-opacity="0.304"/>
      <path d="M18.219,110.625 L18.906,111.286 L18.938,147.656 L17.844,147.129 C17.938,146.222 18.219,110.625 18.219,110.625 z" fill="#000000" fill-opacity="0.304"/>
      <path d="M21.031,112.313 L21.719,112.973 L21.75,149.344 L20.656,148.816 C20.75,147.909 21.031,112.313 21.031,112.313 z" fill="#000000" fill-opacity="0.304"/>
      <path d="M23.844,114 L24.531,114.661 L24.562,151.031 L23.469,150.504 C23.562,149.597 23.844,114 23.844,114 z" fill="#000000" fill-opacity="0.304"/>
      <path d="M26.656,115.688 L27.344,116.348 L27.375,152.719 L26.281,152.191 C26.375,151.284 26.656,115.688 26.656,115.688 z" fill="#000000" fill-opacity="0.304"/>
      <path d="M29.469,117.375 L30.156,118.036 L30.188,154.406 L29.094,153.879 C29.188,152.972 29.469,117.375 29.469,117.375 z" fill="#000000" fill-opacity="0.304"/>
      <path d="M15.875,109.438 L15.875,145.941" fill-opacity="0" stroke="#000000" stroke-width="0.5"/>
      <path d="M18.675,111.188 L18.675,147.563" fill-opacity="0" stroke="#000000" stroke-width="0.5"/>
      <path d="M21.475,112.688 L21.475,149.188" fill-opacity="0" stroke="#000000" stroke-width="0.5"/>
      <path d="M24.275,114.313 L24.275,150.938" fill-opacity="0" stroke="#000000" stroke-width="0.5"/>
      <path d="M27.075,115.813 L27.075,152.313" fill-opacity="0" stroke="#000000" stroke-width="0.5"/>
      <path d="M29.875,117.438 L29.875,153.813" fill-opacity="0" stroke="#000000" stroke-width="0.5"/>
    </g>
  </g>
</svg>
