
<svg width="602" height="229" viewBox="0 0 602 229" fill="none" xmlns="http://www.w3.org/2000/svg">
    <path d="M176.32 3.23636C176.358 2.04536 176.953 0.843371 177.64 0.565371C179.446 -0.163629 182.977 -0.192628 184.799 0.507372C186.178 1.03637 186.126 1.42337 184.381 3.64137C183.235 5.09837 182.385 7.70836 182.378 9.78836C182.364 14.0964 180.303 22.2264 178.167 26.4034C177.323 28.0534 175.691 33.2544 174.541 37.9604C173.39 42.6674 171.819 48.0674 171.05 49.9604C169.216 54.4714 167.978 66.9034 169.362 66.9034C171.462 66.9034 170.292 68.5014 167.39 69.5974C165.146 70.4444 164.39 71.3674 164.39 73.2574C164.39 74.6474 163.883 76.0984 163.264 76.4814C162.54 76.9284 162.334 79.0714 162.686 82.4824C163.091 86.4044 162.858 88.1004 161.793 88.9834C159.988 90.4814 157.717 95.4674 157.048 99.4034C156.4 103.208 151.902 119.499 150.472 123.218C149.877 124.766 149.39 127.977 149.39 130.354C149.39 132.73 148.718 135.963 147.896 137.539C147.075 139.114 146.4 141.184 146.396 142.139C146.387 144.624 144.371 152.723 142.596 157.403C141.762 159.603 140.742 163.428 140.33 165.903C139.567 170.492 137.456 176.902 134.845 182.554C134.045 184.287 133.39 186.447 133.39 187.354C133.39 188.26 132.774 190.217 132.021 191.703C131.267 193.188 129.932 197.276 129.053 200.788C128.174 204.3 126.819 207.9 126.041 208.788C125.263 209.676 124.339 211.303 123.987 212.403C123.635 213.503 122.079 215.929 120.529 217.794C117.982 220.859 117.362 221.12 114.089 220.506C110.92 219.912 110.383 219.384 109.803 216.288C109.122 212.659 109.471 211.647 113.907 204.403C115.255 202.203 116.365 199.233 116.374 197.802C116.398 193.923 118.489 188.577 120.561 187.096C121.567 186.378 122.39 185.34 122.39 184.791C122.39 184.242 123.276 181.849 124.358 179.473C125.441 177.096 126.603 173.183 126.941 170.778C127.279 168.372 128.418 164.295 129.473 161.718C130.527 159.141 131.404 155.541 131.422 153.718C131.439 151.895 132.114 149.529 132.922 148.462C133.729 147.394 134.39 145.333 134.39 143.882C134.39 140.8 140.888 116.217 142.376 113.667C142.934 112.712 143.39 110.319 143.39 108.351C143.39 106.382 143.876 103.863 144.471 102.752C145.066 101.641 145.287 100.466 144.962 100.142C143.217 98.3964 117.39 108.423 117.39 110.846C117.39 112.082 100.094 118.895 96.9044 118.916C95.7964 118.923 91.9654 119.866 88.3904 121.012C81.2324 123.307 66.6554 125.969 58.9374 126.391L53.9854 126.662L51.2054 134.934C49.6774 139.483 47.8204 143.925 47.0804 144.804C46.3404 145.684 45.2124 148.24 44.5734 150.485C43.9344 152.73 42.2894 156.675 40.9194 159.252C39.5494 161.829 37.2774 167.417 35.8714 171.67C34.4654 175.923 31.7444 182.662 29.8254 186.646C27.6574 191.148 26.0044 196.445 25.4584 200.646C24.9744 204.362 24.1994 208.387 23.7344 209.589C22.2104 213.536 8.62042 226.903 6.13242 226.903C5.68542 226.903 4.47242 224.928 3.43742 222.513C2.40242 220.099 1.07042 217.823 0.476422 217.456C-1.27658 216.373 2.09142 211.012 5.95942 208.73C7.95842 207.55 9.68042 205.587 10.0634 204.05C11.5334 198.151 24.9154 168.581 35.5354 147.767C36.5554 145.767 37.3904 143.552 37.3904 142.846C37.3904 142.139 38.0024 140.85 38.7494 139.982C39.4974 139.113 40.6464 136.194 41.3034 133.495C41.9614 130.795 43.1494 127.657 43.9444 126.522C44.7394 125.387 45.3904 123.004 45.3904 121.228C45.3904 118.291 45.9264 116.421 48.4924 110.403C50.2534 106.273 52.2334 99.2514 52.8644 94.9034C53.5874 89.9144 55.6924 82.7524 58.4474 75.9034C59.4434 73.4284 60.5424 70.0804 60.8904 68.4644C61.2384 66.8484 62.3134 64.3734 63.2804 62.9644C64.2464 61.5554 66.0364 55.2304 67.2584 48.9084C68.4804 42.5864 69.9094 36.9844 70.4354 36.4584C70.9604 35.9334 71.3904 34.7444 71.3904 33.8174C71.3904 32.8904 72.0574 30.8454 72.8734 29.2734C73.6884 27.7014 74.8754 23.9374 75.5104 20.9094C76.1454 17.8814 77.5034 14.6564 78.5274 13.7434C80.5594 11.9324 80.9714 9.38037 79.3904 8.40337C78.8404 8.06337 78.3904 6.91236 78.3904 5.84436C78.3904 4.21836 79.1014 3.90337 82.7654 3.90337C86.8654 3.90337 87.1794 4.09937 87.7654 7.02837C88.8724 12.5654 88.5144 16.9034 86.9494 16.9034C85.3964 18.2744 85.3964 18.2788 85.3964 19.8908V19.9064C86.4114 20.5344 86.4104 22.0254 85.3914 27.5454C83.8774 35.7434 84 34.2788 81.5 35.7788C80.5 38.7788 79.5 38.2788 78.8234 42.4034C78.7014 47.8484 74.2694 64.8544 72.3034 67.4284C70.7424 69.4694 66.6874 82.8194 62.2874 100.403C61.1864 104.803 59.4094 109.622 58.3374 111.113C57.2664 112.603 56.3904 114.29 56.3904 114.863C56.3904 116.166 60.0814 116.194 65.6264 114.933C67.9714 114.399 74.1654 113.212 79.3904 112.293C93.0294 109.896 101.73 106.408 123.89 94.4554C127.74 92.3794 133.14 90.0124 135.89 89.1974C138.64 88.3814 143.215 85.9704 146.057 83.8394C150.168 80.7564 151.649 78.8264 153.307 74.3964C154.453 71.3344 155.39 68.1404 155.39 67.3004C155.39 66.4594 155.888 64.8414 156.496 63.7044C157.105 62.5674 158.176 58.4344 158.877 54.5204C160.562 45.1094 163.886 32.7864 165.695 29.2464C166.493 27.6824 167.645 24.0484 168.254 21.1704C170.033 12.7654 174.711 1.51037 175.547 3.62537C176.153 5.16037 176.259 5.10736 176.32 3.23636Z"/>
    <path fill-rule="evenodd" clip-rule="evenodd" d="M254.524 67.4035C251.28 71.0984 249.39 71.8565 249.39 69.4624C249.39 66.3875 247.03 66.8364 243.047 70.6704C240.761 72.8704 237.315 75.4144 235.39 76.3234C233.465 77.2315 229.415 80.2084 226.39 82.9374C223.365 85.6664 220.612 87.9004 220.273 87.9014C219.933 87.9024 218.473 89.6904 217.028 91.8744C215.582 94.0595 212.755 97.3214 210.746 99.1244C208.737 100.928 205.797 105.103 204.213 108.403C202.628 111.703 200.297 116.203 199.032 118.403C197.767 120.603 194.115 127.353 190.917 133.403C187.718 139.453 184.523 145.079 183.815 145.905C181.993 148.033 180.401 152.528 179.221 158.883C178.662 161.897 177.58 165.569 176.817 167.043C174.039 172.417 172.599 193.432 174.416 202.114C175.714 208.322 178.638 214.204 181.679 216.728C182.538 217.44 186.761 218.385 191.065 218.828C195.369 219.27 200.69 220.396 202.89 221.329C206.073 222.68 208.627 222.903 215.39 222.421C222.724 221.898 225.031 221.239 232.208 217.618C241.551 212.905 250.656 204.216 255.89 195.02C257.54 192.121 259.883 188.321 261.096 186.576C262.31 184.831 263.952 181.995 264.744 180.275C265.537 178.555 266.633 176.871 267.179 176.534C270.83 174.277 280.23 148.885 283.886 131.403C286.434 119.222 284.203 101.754 278.617 90.1485C275.397 83.4574 274.262 82.0634 270.279 79.9035C263.122 76.0225 262.39 75.1325 262.39 70.3164C262.39 67.0464 261.912 65.7184 260.456 64.9384C259.39 64.3678 258.782 64.0175 258.206 64.0642C257.36 64.1328 256.583 65.0589 254.524 67.4035ZM265.592 88.1516C266.172 88.6156 266.425 89.4867 266.857 90.9035C267.443 92.8284 268.643 95.7534 269.523 97.4035C273.825 105.471 275.458 121.587 272.753 129.279C272.003 131.41 271.39 134.85 271.39 136.923C271.39 141.446 268.187 152.464 264.825 159.503C263.486 162.307 262.39 165.019 262.39 165.529C262.39 166.039 259.915 169.562 256.89 173.358C253.865 177.154 251.39 181.045 251.39 182.005C250.934 183.128 249.834 185.615 249.088 186.576C247.822 188.131 245.171 191.878 243.197 194.903C234.955 203.803 221.999 209.909 216.551 211.85C210.367 212.777 208.32 212.687 203.551 211.287C194.719 210.734 179.048 201.443 187.026 168.703C187.776 167.217 188.39 164.384 188.39 162.407C188.883 158.948 191.582 149.403 198.434 138.903C199.017 138.466 201.521 134.015 208.488 121.034C208.644 120.286 209.509 118.239 211.727 116.034C212.513 115.137 214.126 112.477 215.31 110.122C218.964 104.348 227.598 92.1979 232.903 89.7894C235.255 88.6155 238.239 86.6974 239.535 85.5285C242.053 83.689 247.68 79.0369 250.044 75.1444C250.652 72.7245 250.784 72.6585 251.47 74.4395C251.886 75.5194 251.988 78.6685 251.696 81.4374C252.418 82.9915 254.715 86.5798 258.126 88.5015C262.875 87.7138 264.658 87.4031 265.592 88.1516Z"/>
    <path fill-rule="evenodd" clip-rule="evenodd" d="M577.577 52.0513C569.83 55.0833 546.408 75.5463 543.249 82.0443C542.131 84.3443 539.947 88.8263 538.396 92.0053C536.846 95.1844 534.35 99.1383 532.85 100.792C531.35 102.445 529.057 105.244 527.755 107.011C525.011 110.734 516.402 130.124 514.563 136.725C513.873 139.2 511.973 144.156 510.341 147.738C506.778 155.557 504.083 172.233 503.394 190.725C502.716 208.918 502.753 209.46 504.797 211.655C506.972 213.99 517.846 219.694 520.158 219.712C521.027 219.719 523.952 220.848 526.658 222.221C533.978 225.935 542.684 225.736 550.509 221.676C563.666 214.85 573.077 206.947 573.077 202.725C573.077 200.253 569.593 198.379 566.459 199.165C565.121 199.501 562.35 201.238 560.302 203.025C558.253 204.811 555.002 207.068 553.077 208.04C551.152 209.012 548.452 210.457 547.077 211.251C543.128 213.532 538.39 212.982 526.577 208.872L515.577 205.044L515.774 193.635C516.203 168.809 517.843 154.994 520.637 152.675C521.435 152.013 524.222 151.521 526.832 151.581C536.549 151.806 564.584 140.256 571.107 133.34C573.625 130.67 578.257 124.309 586.844 111.725C587.782 110.35 589.097 108.775 589.765 108.225C592.069 106.33 599.12 91.2133 600.26 85.7252C601.875 77.9453 601.881 62.5873 600.27 59.5813C598.75 56.7462 586.816 50.6383 583.077 50.7813C581.702 50.8343 579.227 51.4053 577.577 52.0513ZM590.441 67.3654C590.791 69.9164 591.077 73.5803 591.077 75.5073C591.077 79.7284 587.439 92.3833 585.964 93.2953C585.385 93.6533 584.017 96.0333 582.924 98.5854C581.292 102.394 574.365 112.766 572.144 114.725C571.832 115 570.742 116.869 569.721 118.879C568.701 120.888 566.33 124.16 564.453 126.151C560.239 130.449 551.768 133.658 548.059 134.725C546.879 134.725 543.142 136.349 539.756 138.334C532.9 142.352 524.092 146.074 523.304 145.286C525.147 131.692 536.059 112.89 541.284 105.188C542.686 102.968 545.204 98.4684 546.88 95.1884C551.828 85.5054 558.666 77.5393 564.987 74.0963C567.511 72.7213 571.377 70.5054 573.577 69.1724C579.842 65.3773 585.384 62.8733 587.691 62.7964C589.463 62.7364 589.908 63.4763 590.441 67.3654Z"/>
    <path d="M470.995 66.1904C474.237 63.9994 477.565 61.9494 478.39 61.6344C480.94 60.6604 488.42 60.8484 490.456 61.9384C491.52 62.5084 492.39 63.6474 492.39 64.4704C492.39 65.2924 493.061 66.2234 493.881 66.5384C494.701 66.8534 495.902 68.9764 496.549 71.2564C497.197 73.5374 498.101 75.8314 498.559 76.3534C499.657 77.6084 499.613 81.5244 498.46 85.3324C497.948 87.0214 496.767 91.1034 495.835 94.4034C494.903 97.7034 493.72 101.228 493.205 102.237C492.69 103.245 491.201 107.227 489.895 111.085C488.59 114.943 486.875 118.843 486.084 119.751C484.636 121.415 479.609 134.133 476.735 143.403C474.054 152.05 471.653 158.046 468.924 162.903C466.824 166.642 464.39 172.545 464.39 173.9C464.39 174.557 463.734 176.289 462.931 177.749C460.18 182.755 457.442 189.682 456.293 194.541C455.662 197.215 454.544 200.565 453.81 201.985C453.076 203.405 452.042 206.33 451.512 208.485C450.983 210.64 449.536 215.254 448.298 218.738C446.393 224.097 447 225.279 446.5 226.279C446 227.279 444.73 226.81 437.89 226.707L436.071 225.806L436.006 220.105C435.96 216.142 436.618 213.012 438.163 209.842C439.385 207.333 441.108 202.833 441.99 199.842C442.872 196.85 443.99 193.916 444.475 193.321C444.959 192.726 446.973 188.226 448.949 183.321C450.925 178.416 453.347 173.053 454.331 171.403C455.315 169.753 457.365 164.803 458.887 160.403C460.408 156.003 462.443 150.828 463.409 148.903C464.375 146.978 466.126 142.253 467.301 138.403C469.827 130.128 475.32 116.391 478.865 109.484C480.254 106.778 481.39 103.806 481.39 102.88C481.39 101.954 482.534 98.0934 483.933 94.3004C487.277 85.2304 488.284 74.8904 486.008 73.0014C483.774 71.1474 478.01 72.2004 474.047 75.1874C470.812 77.6254 460.243 82.9034 458.596 82.9034C458.091 82.9034 455.7 84.4104 453.284 86.2524C450.867 88.0954 447.315 90.4034 445.39 91.3824C443.465 92.3614 439.554 95.3544 436.7 98.0324C433.845 100.711 431.087 102.903 430.571 102.903C430.055 102.903 429.07 104.262 428.382 105.923C427.694 107.584 425.839 110.03 424.26 111.359C422.682 112.687 421.39 114.248 421.39 114.828C421.39 115.408 419.248 118.249 416.63 121.142C413.74 124.337 411.356 128.171 410.561 130.903C407.413 141.724 405.94 145.823 402.834 152.403C398.176 162.272 395.39 169.784 395.39 172.477C395.39 173.747 394.99 175.032 394.501 175.335C394.012 175.637 393.309 177.09 392.939 178.565C392.569 180.039 391.394 182.354 390.328 183.709C389.262 185.064 388.39 187.435 388.39 188.979C388.39 190.522 387.933 192.067 387.375 192.412C385.714 193.439 384.772 199.842 383.39 203.491C381.5 208.485 381.5 210.779 378.803 216.279C376.829 219.059 374.708 221.782 375.218 222.288L372.5 224.279L371.5 226.707C368 229.279 366.5 228.779 362.108 227.106C361.01 225.14 360.852 225.256 364.24 220.013C366.351 216.748 368.876 211.224 369.85 207.739C370.825 204.254 372.643 199.378 373.89 196.903C375.137 194.428 377.348 188.625 378.803 184.007C380.259 179.389 382.091 174.439 382.874 173.007C383.658 171.575 385.73 167.028 387.478 162.903C389.227 158.778 391.272 154.515 392.024 153.43C392.775 152.346 393.39 150.374 393.39 149.049C393.39 147.723 394.273 145.21 395.353 143.464C396.432 141.717 397.956 137.839 398.739 134.846C399.523 131.852 401.565 125.128 403.277 119.903C404.989 114.678 406.39 109.266 406.39 107.876C406.39 106.485 407 104.46 407.745 103.376C408.49 102.291 410.085 98.4184 411.288 94.7694C412.491 91.1214 414.356 87.3384 415.433 86.3644C417.657 84.3524 418.123 78.0364 416.19 76.1034C414.366 74.2794 409.96 74.6674 407.117 76.9034C405.719 78.0034 404.115 78.9034 403.553 78.9034C402.991 78.9034 398.253 80.8894 393.025 83.3154C387.796 85.7424 382.477 88.0554 381.204 88.4564C379.931 88.8574 376.415 90.8214 373.39 92.8214C370.365 94.8214 366.575 97.1204 364.967 97.9304C359.739 100.564 347.872 113.543 344.354 120.474C340.55 127.968 340.332 128.161 335.538 128.3C332.412 128.39 331.894 128.774 331.348 131.403C331.005 133.053 330.023 135.753 329.165 137.403C328.307 139.053 326.624 144.678 325.426 149.903C324.228 155.128 322.154 163.228 320.818 167.903C319.483 172.578 318.1 177.978 317.746 179.903C317.392 181.828 316.317 184.161 315.357 185.088C314.06 186.341 313.444 189.163 312.957 196.088C312.561 201.708 311.537 207.188 310.376 209.903C309.318 212.378 307.985 216.263 307.414 218.537C306.079 223.85 305.136 224.521 297.89 225.307C293.278 225.807 292.309 225.701 293.701 224.847C295.055 224.016 295.354 223.016 294.886 220.884C294.498 219.119 294.813 217.15 295.712 215.717C296.511 214.445 297.737 210.928 298.435 207.903C299.134 204.878 300.381 200.828 301.208 198.903C302.034 196.978 303.054 193.603 303.474 191.403C303.894 189.203 304.917 185.378 305.746 182.903C308.723 174.016 313.268 158.274 314.808 151.52C315.671 147.734 317.082 143.234 317.944 141.52C318.806 139.806 321.566 132.328 324.076 124.903C326.586 117.478 328.939 110.953 329.304 110.403C330.76 108.208 335.428 91.8064 337.415 81.9034C340.389 67.0774 341.151 65.0014 343.866 64.3204C351.221 62.4744 353.645 66.6014 350.886 76.2714C348.378 85.0604 346.085 91.2884 342 100.403C340.028 104.803 338.409 109.191 338.402 110.153C338.381 113.165 340.181 112.065 341.421 108.31C342.073 106.333 344.209 103.071 346.166 101.06C348.124 99.0484 350.988 95.6664 352.53 93.5424C355.25 89.7954 360.968 85.9034 363.751 85.9034C364.504 85.9034 367.768 84.1044 371.005 81.9054C374.242 79.7074 377.226 77.9074 377.638 77.9054C378.049 77.9044 385.38 74.4694 393.929 70.2734C408.224 63.2564 409.832 62.6924 413.935 63.2544C419.653 64.0384 425.629 67.0934 427.737 70.3104C430.206 74.0774 429.759 79.8954 426.432 87.3104C422.869 95.2514 424.235 96.0854 430.265 89.6514C432.457 87.3134 437.544 83.6474 441.57 81.5054C445.596 79.3634 449.844 76.7524 451.01 75.7044C452.176 74.6564 455.824 72.9834 459.116 71.9864C462.407 70.9894 467.753 68.3814 470.995 66.1904Z"/>
    <style>
        path {
            fill: #FFF;
        }
    </style>
</svg>
