<svg width="512" height="512" viewBox="0 0 512 512" fill="none" xmlns="http://www.w3.org/2000/svg">
	<path fill-rule="evenodd" clip-rule="evenodd" d="M174.743 292.14C145.67 390.035 76.848 483.824 46.7897 483.824C16.7313 483.824 14.2675 442.268 50.239 392.006C88.4459 343.032 110.746 316.738 154.704 275.386C161.298 262.04 167.261 249.776 172.896 238.186C192.677 197.501 208.417 165.126 233.217 123.452C265.082 69.9052 359.528 8.42384 433.607 41.1608C513.105 82.3884 475.984 224.139 432.621 288.034C395.335 338.46 361.006 314.15 371.026 284.42L398.785 211.491C410.775 170.264 380.388 182.418 367.905 205.25C355.422 228.081 324.707 314.15 324.707 314.15C319.172 327.564 313.962 327.562 304.503 326.962C295.987 326.029 289.72 314.15 291.692 306.594C293.663 299.039 341.953 192.11 341.953 192.11L324.707 199.994C293.803 287.894 256.048 311.85 236.667 311.85C217.285 311.85 211.334 299.63 219.42 256.333C211.733 263.823 206.411 267.824 197.848 274.262L197.847 274.263L197.847 274.263C192.139 278.554 184.991 283.928 174.743 292.14ZM448.295 181.683L448.553 180.612C453.153 161.559 456.438 141.848 451.839 109.49C447.239 77.1323 420.331 36.215 344.91 63.6636C296.269 81.3657 280.145 103.868 261.658 129.667C261.105 130.439 260.549 131.215 259.991 131.993C240.773 158.766 209.236 230.874 209.236 230.874L294.484 156.467C300.068 153.291 313.077 150.685 320.436 165.665V170.921C331.934 166.431 356.309 154.923 361.828 144.805C364.456 139.68 372.778 141.684 376.61 143.326L390.901 151.868L389.258 156.467C393.693 155.043 408.147 159.826 411.761 161.723C412.144 161.924 412.61 162.147 413.14 162.401C417.612 164.541 426.648 168.864 428.843 180.612C431.298 193.752 419.968 243.049 399.934 283.928C436.207 231.856 443.683 200.829 448.295 181.683ZM53.8525 451.466C82.4326 430.77 116.615 374.853 133.515 331.068C130.317 334.738 127.179 338.328 124.109 341.841L124.088 341.865L124.088 341.865C82.4059 389.555 53.1643 423.011 52.3742 448.509C52.3742 448.509 52.21 452.451 53.8525 451.466ZM241.759 280.971C245.146 248.576 255.133 232.294 289.064 200.815C291.048 199.052 292.513 199.501 294.484 202.293C294.484 209.685 274.609 263.56 243.401 281.513C242.58 282.128 241.587 282.613 241.759 280.971Z"/>
    <style>
        path { fill: #FFF; }
    </style>
</svg>
