<?xml version="1.0" encoding="UTF-8" standalone="no"?>
<!DOCTYPE svg PUBLIC "-//W3C//DTD SVG 1.1//EN"
 "http://www.w3.org/Graphics/SVG/1.1/DTD/svg11.dtd">
<!-- Generated by graphviz version 2.38.0 (20140413.2041)
 -->
<!-- Title: my_graph Pages: 1 -->
<svg width="290pt" height="136pt"
 viewBox="0.00 0.00 289.95 136.00" xmlns="http://www.w3.org/2000/svg" xmlns:xlink="http://www.w3.org/1999/xlink">
<g id="graph0" class="graph" transform="scale(1 1) rotate(0) translate(4 132)">
<title>my_graph</title>
<polygon fill="white" stroke="none" points="-4,4 -4,-132 285.948,-132 285.948,4 -4,4"/>
<g id="clust1" class="cluster"><title>cluster_boys</title>
<polygon fill="none" stroke="black" points="8,-68 8,-120 175.477,-120 175.477,-68 8,-68"/>
</g>
<g id="clust2" class="cluster"><title>cluster_girls</title>
<polygon fill="none" stroke="black" points="100.453,-8 100.453,-60 273.948,-60 273.948,-8 100.453,-8"/>
</g>
<!-- joe -->
<g id="node1" class="node"><title>joe</title>
<ellipse fill="none" stroke="black" cx="43" cy="-94" rx="27" ry="18"/>
<text text-anchor="middle" x="43" y="-89.8" font-family="Times,serif" font-size="14.00">Joe</text>
</g>
<!-- frank -->
<g id="node2" class="node"><title>frank</title>
<ellipse fill="none" stroke="black" cx="136.739" cy="-94" rx="30.9793" ry="18"/>
<text text-anchor="middle" x="136.739" y="-89.8" font-family="Times,serif" font-size="14.00">Frank</text>
</g>
<!-- joe&#45;&gt;frank -->
<g id="edge2" class="edge"><title>joe&#45;&gt;frank</title>
<path fill="none" stroke="black" d="M70.0432,-94C78.0388,-94 87.0296,-94 95.7339,-94"/>
<polygon fill="black" stroke="black" points="95.7437,-97.5001 105.744,-94 95.7436,-90.5001 95.7437,-97.5001"/>
</g>
<!-- sally -->
<g id="node3" class="node"><title>sally</title>
<ellipse fill="none" stroke="black" cx="136.739" cy="-34" rx="28.0736" ry="18"/>
<text text-anchor="middle" x="136.739" y="-29.8" font-family="Times,serif" font-size="14.00">Sally</text>
</g>
<!-- joe&#45;&gt;sally -->
<g id="edge1" class="edge"><title>joe&#45;&gt;sally</title>
<path fill="none" stroke="black" d="M63.0083,-81.568C75.9599,-73.0972 93.3229,-61.7412 107.836,-52.2493"/>
<polygon fill="black" stroke="black" points="109.986,-55.0253 116.439,-46.6225 106.154,-49.167 109.986,-55.0253"/>
</g>
<!-- susan -->
<g id="node4" class="node"><title>susan</title>
<ellipse fill="none" stroke="black" cx="234.713" cy="-34" rx="31.4723" ry="18"/>
<text text-anchor="middle" x="234.713" y="-29.8" font-family="Times,serif" font-size="14.00">Susan</text>
</g>
<!-- frank&#45;&gt;susan -->
<g id="edge3" class="edge"><title>frank&#45;&gt;susan</title>
<path fill="none" stroke="black" d="M158.564,-80.9809C171.895,-72.6466 189.396,-61.7053 204.155,-52.4785"/>
<polygon fill="black" stroke="black" points="206.304,-55.2625 212.928,-46.9937 202.594,-49.327 206.304,-55.2625"/>
</g>
<!-- sally&#45;&gt;frank -->
<g id="edge4" class="edge"><title>sally&#45;&gt;frank</title>
<path fill="none" stroke="black" d="M136.739,-52.2812C136.739,-56.6813 136.739,-61.0813 136.739,-65.4813"/>
<polygon fill="black" stroke="black" points="133.239,-65.748 136.739,-75.748 140.239,-65.7481 133.239,-65.748"/>
</g>
<!-- sally&#45;&gt;susan -->
<g id="edge5" class="edge"><title>sally&#45;&gt;susan</title>
<path fill="none" stroke="black" d="M165.241,-34C173.853,-34 183.55,-34 192.877,-34"/>
<polygon fill="black" stroke="black" points="193.174,-37.5001 203.174,-34 193.174,-30.5001 193.174,-37.5001"/>
</g>
</g>
</svg>
