<?xml version="1.0" encoding="UTF-8" standalone="no"?>
<!DOCTYPE svg PUBLIC "-//W3C//DTD SVG 1.1//EN"
 "http://www.w3.org/Graphics/SVG/1.1/DTD/svg11.dtd">
<!-- Generated by graphviz version 2.38.0 (20140413.2041)
 -->
<!-- Title: my_graph Pages: 1 -->
<svg width="62pt" height="160pt"
 viewBox="0.00 0.00 62.00 160.00" xmlns="http://www.w3.org/2000/svg" xmlns:xlink="http://www.w3.org/1999/xlink">
<g id="graph0" class="graph" transform="scale(1 1) rotate(0) translate(4 156)">
<title>my_graph</title>
<polygon fill="white" stroke="none" points="-4,4 -4,-156 58,-156 58,4 -4,4"/>
<!-- people -->
<g id="node1" class="node"><title>people</title>
<polygon fill="none" stroke="black" points="0,-0.5 0,-88.5 54,-88.5 54,-0.5 0,-0.5"/>
<text text-anchor="middle" x="27" y="-73.3" font-family="Times,serif" font-size="14.00">people</text>
<polyline fill="none" stroke="black" points="0,-66.5 54,-66.5 "/>
<text text-anchor="middle" x="27" y="-51.3" font-family="Times,serif" font-size="14.00">id</text>
<polyline fill="none" stroke="black" points="0,-44.5 54,-44.5 "/>
<text text-anchor="middle" x="27" y="-29.3" font-family="Times,serif" font-size="14.00">name</text>
<polyline fill="none" stroke="black" points="0,-22.5 54,-22.5 "/>
<text text-anchor="middle" x="27" y="-7.3" font-family="Times,serif" font-size="14.00">car_id</text>
</g>
<!-- cars -->
<g id="node2" class="node"><title>cars</title>
<polygon fill="none" stroke="black" points="0,-107.5 0,-151.5 54,-151.5 54,-107.5 0,-107.5"/>
<text text-anchor="middle" x="27" y="-136.3" font-family="Times,serif" font-size="14.00">cars</text>
<polyline fill="none" stroke="black" points="0,-129.5 54,-129.5 "/>
<text text-anchor="middle" x="27" y="-114.3" font-family="Times,serif" font-size="14.00">id</text>
</g>
</g>
</svg>
