<?xml version="1.0" encoding="UTF-8" standalone="no"?>
<!DOCTYPE svg PUBLIC "-//W3C//DTD SVG 1.1//EN"
 "http://www.w3.org/Graphics/SVG/1.1/DTD/svg11.dtd">
<!-- Generated by graphviz version 2.38.0 (20140413.2041)
 -->
<!-- Title: my_graph Pages: 1 -->
<svg width="152pt" height="97pt"
 viewBox="0.00 0.00 152.00 97.00" xmlns="http://www.w3.org/2000/svg" xmlns:xlink="http://www.w3.org/1999/xlink">
<g id="graph0" class="graph" transform="scale(1 1) rotate(0) translate(4 93)">
<title>my_graph</title>
<polygon fill="white" stroke="none" points="-4,4 -4,-93 148,-93 148,4 -4,4"/>
<!-- people -->
<g id="node1" class="node"><title>people</title>
<polygon fill="none" stroke="black" points="0,-0.5 0,-88.5 54,-88.5 54,-0.5 0,-0.5"/>
<text text-anchor="middle" x="27" y="-73.3" font-family="Times,serif" font-size="14.00">people</text>
<polyline fill="none" stroke="black" points="0,-66.5 54,-66.5 "/>
<text text-anchor="middle" x="27" y="-51.3" font-family="Times,serif" font-size="14.00">id</text>
<polyline fill="none" stroke="black" points="0,-44.5 54,-44.5 "/>
<text text-anchor="middle" x="27" y="-29.3" font-family="Times,serif" font-size="14.00">name</text>
<polyline fill="none" stroke="black" points="0,-22.5 54,-22.5 "/>
<text text-anchor="middle" x="27" y="-7.3" font-family="Times,serif" font-size="14.00">car_id</text>
</g>
<!-- cars -->
<g id="node2" class="node"><title>cars</title>
<polygon fill="none" stroke="black" points="90,-0.5 90,-44.5 144,-44.5 144,-0.5 90,-0.5"/>
<text text-anchor="middle" x="117" y="-29.3" font-family="Times,serif" font-size="14.00">cars</text>
<polyline fill="none" stroke="black" points="90,-22.5 144,-22.5 "/>
<text text-anchor="middle" x="117" y="-7.3" font-family="Times,serif" font-size="14.00">id</text>
</g>
<!-- people&#45;&gt;cars -->
<g id="edge1" class="edge"><title>people:car_id&#45;&gt;cars:id</title>
<path fill="none" stroke="black" d="M54,-11.5C66,-11.5 71.25,-11.5 79.875,-11.5"/>
<polygon fill="black" stroke="black" points="80,-15.0001 90,-11.5 80,-8.0001 80,-15.0001"/>
</g>
</g>
</svg>
