<?xml version="1.0" encoding="UTF-8" standalone="no"?>
<!DOCTYPE svg PUBLIC "-//W3C//DTD SVG 1.1//EN"
 "http://www.w3.org/Graphics/SVG/1.1/DTD/svg11.dtd">
<!-- Generated by graphviz version 2.38.0 (20140413.2041)
 -->
<!-- Title: my_graph Pages: 1 -->
<svg width="167pt" height="263pt"
 viewBox="0.00 0.00 167.12 263.00" xmlns="http://www.w3.org/2000/svg" xmlns:xlink="http://www.w3.org/1999/xlink">
<g id="graph0" class="graph" transform="scale(1 1) rotate(0) translate(4 259)">
<title>my_graph</title>
<polygon fill="white" stroke="none" points="-4,4 -4,-259 163.117,-259 163.117,4 -4,4"/>
<!-- joe -->
<g id="node1" class="node"><title>joe</title>
<ellipse fill="none" stroke="black" cx="76.286" cy="-237" rx="27" ry="18"/>
<text text-anchor="middle" x="76.286" y="-232.8" font-family="Times,serif" font-size="14.00">Joe</text>
</g>
<!-- sally -->
<g id="node2" class="node"><title>sally</title>
<ellipse fill="none" stroke="black" cx="28.286" cy="-164" rx="28.0736" ry="18"/>
<text text-anchor="middle" x="28.286" y="-159.8" font-family="Times,serif" font-size="14.00">Sally</text>
</g>
<!-- joe&#45;&#45;sally -->
<g id="edge1" class="edge"><title>joe&#45;&#45;sally</title>
<path fill="none" stroke="black" d="M65.6333,-220.243C57.6788,-208.477 46.8562,-192.468 38.909,-180.713"/>
</g>
<!-- frank -->
<g id="node3" class="node"><title>frank</title>
<ellipse fill="none" stroke="black" cx="87.286" cy="-91" rx="30.9793" ry="18"/>
<text text-anchor="middle" x="87.286" y="-86.8" font-family="Times,serif" font-size="14.00">Frank</text>
</g>
<!-- joe&#45;&#45;frank -->
<g id="edge2" class="edge"><title>joe&#45;&#45;frank</title>
<path fill="none" stroke="black" d="M77.5911,-218.916C79.7081,-191.202 83.8667,-136.762 85.9827,-109.062"/>
<text text-anchor="middle" x="121.202" y="-159.8" font-family="Times,serif" font-size="14.00">strong dislike</text>
</g>
<!-- sally&#45;&#45;frank -->
<g id="edge4" class="edge"><title>sally&#45;&#45;frank</title>
<path fill="none" stroke="black" d="M41.0881,-147.594C50.9844,-135.685 64.6189,-119.277 74.5089,-107.376"/>
</g>
<!-- susan -->
<g id="node4" class="node"><title>susan</title>
<ellipse fill="none" stroke="black" cx="49.286" cy="-18" rx="31.4723" ry="18"/>
<text text-anchor="middle" x="49.286" y="-13.8" font-family="Times,serif" font-size="14.00">Susan</text>
</g>
<!-- sally&#45;&#45;susan -->
<g id="edge5" class="edge"><title>sally&#45;&#45;susan</title>
<path fill="none" stroke="black" d="M30.7775,-145.916C34.8191,-118.202 42.7583,-63.7617 46.7978,-36.0619"/>
</g>
<!-- frank&#45;&#45;susan -->
<g id="edge3" class="edge"><title>frank&#45;&#45;susan</title>
<path fill="none" stroke="black" d="M78.4725,-73.5327C72.3335,-62.0625 64.1802,-46.8286 58.0517,-35.378"/>
</g>
</g>
</svg>
