<?xml version="1.0" encoding="UTF-8" standalone="no"?>
<!DOCTYPE svg PUBLIC "-//W3C//DTD SVG 1.1//EN"
 "http://www.w3.org/Graphics/SVG/1.1/DTD/svg11.dtd">
<!-- Generated by graphviz version 2.38.0 (20140413.2041)
 -->
<!-- Title: my_graph Pages: 1 -->
<svg width="351pt" height="90pt"
 viewBox="0.00 0.00 350.52 90.00" xmlns="http://www.w3.org/2000/svg" xmlns:xlink="http://www.w3.org/1999/xlink">
<g id="graph0" class="graph" transform="scale(1 1) rotate(0) translate(4 86)">
<title>my_graph</title>
<polygon fill="white" stroke="none" points="-4,4 -4,-86 346.52,-86 346.52,4 -4,4"/>
<!-- joe -->
<g id="node1" class="node"><title>joe</title>
<ellipse fill="none" stroke="black" cx="27" cy="-41" rx="27" ry="18"/>
<text text-anchor="middle" x="27" y="-36.8" font-family="Times,serif" font-size="14.00">Joe</text>
</g>
<!-- sally -->
<g id="node2" class="node"><title>sally</title>
<ellipse fill="none" stroke="black" cx="118.286" cy="-18" rx="28.0736" ry="18"/>
<text text-anchor="middle" x="118.286" y="-13.8" font-family="Times,serif" font-size="14.00">Sally</text>
</g>
<!-- joe&#45;&gt;sally -->
<g id="edge1" class="edge"><title>joe&#45;&gt;sally</title>
<path fill="none" stroke="black" d="M52.3978,-34.7151C61.4416,-32.3855 71.8917,-29.6935 81.7275,-27.1598"/>
<polygon fill="black" stroke="black" points="82.8596,-30.4826 91.6703,-24.5986 81.1133,-23.7039 82.8596,-30.4826"/>
</g>
<!-- frank -->
<g id="node3" class="node"><title>frank</title>
<ellipse fill="none" stroke="black" cx="213.311" cy="-64" rx="30.9793" ry="18"/>
<text text-anchor="middle" x="213.311" y="-59.8" font-family="Times,serif" font-size="14.00">Frank</text>
</g>
<!-- joe&#45;&gt;frank -->
<g id="edge2" class="edge"><title>joe&#45;&gt;frank</title>
<path fill="none" stroke="black" d="M53.6276,-44.1981C84.5067,-48.0514 136.724,-54.5676 172.778,-59.0668"/>
<polygon fill="black" stroke="black" points="172.59,-62.5704 182.947,-60.3357 173.457,-55.6243 172.59,-62.5704"/>
</g>
<!-- sally&#45;&gt;frank -->
<g id="edge4" class="edge"><title>sally&#45;&gt;frank</title>
<path fill="none" stroke="black" d="M141.332,-28.9014C152.918,-34.6309 167.337,-41.7608 180.146,-48.0948"/>
<polygon fill="black" stroke="black" points="178.61,-51.2397 189.125,-52.535 181.713,-44.9649 178.61,-51.2397"/>
</g>
<!-- susan -->
<g id="node4" class="node"><title>susan</title>
<ellipse fill="none" stroke="black" cx="311.285" cy="-41" rx="31.4723" ry="18"/>
<text text-anchor="middle" x="311.285" y="-36.8" font-family="Times,serif" font-size="14.00">Susan</text>
</g>
<!-- sally&#45;&gt;susan -->
<g id="edge5" class="edge"><title>sally&#45;&gt;susan</title>
<path fill="none" stroke="black" d="M146.246,-21.2466C178.674,-25.1515 233.385,-31.7398 270.629,-36.2246"/>
<polygon fill="black" stroke="black" points="270.29,-39.7091 280.637,-37.4298 271.127,-32.7593 270.29,-39.7091"/>
</g>
<!-- frank&#45;&gt;susan -->
<g id="edge3" class="edge"><title>frank&#45;&gt;susan</title>
<path fill="none" stroke="black" d="M242.07,-57.3474C251.537,-55.0788 262.289,-52.502 272.412,-50.076"/>
<polygon fill="black" stroke="black" points="273.346,-53.4515 282.255,-47.7173 271.715,-46.6442 273.346,-53.4515"/>
</g>
</g>
</svg>
