<?xml version="1.0" encoding="UTF-8" standalone="no"?>
<!DOCTYPE svg PUBLIC "-//W3C//DTD SVG 1.1//EN"
 "http://www.w3.org/Graphics/SVG/1.1/DTD/svg11.dtd">
<!-- Generated by graphviz version 2.38.0 (20140413.2041)
 -->
<!-- Title: my_graph Pages: 1 -->
<svg width="123pt" height="260pt"
 viewBox="0.00 0.00 123.02 260.00" xmlns="http://www.w3.org/2000/svg" xmlns:xlink="http://www.w3.org/1999/xlink">
<g id="graph0" class="graph" transform="scale(1 1) rotate(0) translate(4 256)">
<title>my_graph</title>
<polygon fill="white" stroke="none" points="-4,4 -4,-256 119.025,-256 119.025,4 -4,4"/>
<!-- joe -->
<g id="node1" class="node"><title>joe</title>
<ellipse fill="none" stroke="black" cx="58.7387" cy="-234" rx="27" ry="18"/>
<text text-anchor="middle" x="58.7387" y="-229.8" font-family="Times,serif" font-size="14.00">Joe</text>
</g>
<!-- sally -->
<g id="node2" class="node"><title>sally</title>
<ellipse fill="none" stroke="black" cx="86.7387" cy="-162" rx="28.0736" ry="18"/>
<text text-anchor="middle" x="86.7387" y="-157.8" font-family="Times,serif" font-size="14.00">Sally</text>
</g>
<!-- joe&#45;&#45;sally -->
<g id="edge1" class="edge"><title>joe&#45;&#45;sally</title>
<path fill="none" stroke="black" d="M65.3743,-216.411C69.773,-205.414 75.5277,-191.027 79.9562,-179.956"/>
</g>
<!-- frank -->
<g id="node3" class="node"><title>frank</title>
<ellipse fill="none" stroke="black" cx="30.7387" cy="-90" rx="30.9793" ry="18"/>
<text text-anchor="middle" x="30.7387" y="-85.8" font-family="Times,serif" font-size="14.00">Frank</text>
</g>
<!-- joe&#45;&#45;frank -->
<g id="edge2" class="edge"><title>joe&#45;&#45;frank</title>
<path fill="none" stroke="black" d="M55.3612,-215.871C49.9795,-188.578 39.5174,-135.52 34.1281,-108.189"/>
</g>
<!-- sally&#45;&#45;frank -->
<g id="edge4" class="edge"><title>sally&#45;&#45;frank</title>
<path fill="none" stroke="black" d="M74.3105,-145.465C65.0303,-133.865 52.404,-118.082 43.1322,-106.492"/>
</g>
<!-- susan -->
<g id="node4" class="node"><title>susan</title>
<ellipse fill="none" stroke="black" cx="59.7387" cy="-18" rx="31.4723" ry="18"/>
<text text-anchor="middle" x="59.7387" y="-13.8" font-family="Times,serif" font-size="14.00">Susan</text>
</g>
<!-- sally&#45;&#45;susan -->
<g id="edge5" class="edge"><title>sally&#45;&#45;susan</title>
<path fill="none" stroke="black" d="M83.8067,-143.913C80.6963,-125.977 75.5733,-96.9688 70.7387,-72 68.4164,-60.006 65.616,-46.5261 63.4221,-36.1624"/>
</g>
<!-- frank&#45;&#45;susan -->
<g id="edge3" class="edge"><title>frank&#45;&#45;susan</title>
<path fill="none" stroke="black" d="M37.6113,-72.411C42.1671,-61.4141 48.1273,-47.0274 52.714,-35.9562"/>
</g>
</g>
</svg>
