<?xml version="1.0" encoding="UTF-8" standalone="no"?>
<!DOCTYPE svg PUBLIC "-//W3C//DTD SVG 1.1//EN"
 "http://www.w3.org/Graphics/SVG/1.1/DTD/svg11.dtd">
<!-- Generated by graphviz version 2.38.0 (20140413.2041)
 -->
<!-- Title: my_graph Pages: 1 -->
<svg width="123pt" height="260pt"
 viewBox="0.00 0.00 123.02 260.00" xmlns="http://www.w3.org/2000/svg" xmlns:xlink="http://www.w3.org/1999/xlink">
<g id="graph0" class="graph" transform="scale(1 1) rotate(0) translate(4 256)">
<title>my_graph</title>
<polygon fill="white" stroke="none" points="-4,4 -4,-256 119.025,-256 119.025,4 -4,4"/>
<!-- joe -->
<g id="node1" class="node"><title>joe</title>
<ellipse fill="none" stroke="black" cx="58.7387" cy="-234" rx="27" ry="18"/>
<text text-anchor="middle" x="58.7387" y="-229.8" font-family="Times,serif" font-size="14.00">Joe</text>
</g>
<!-- sally -->
<g id="node2" class="node"><title>sally</title>
<ellipse fill="none" stroke="black" cx="86.7387" cy="-162" rx="28.0736" ry="18"/>
<text text-anchor="middle" x="86.7387" y="-157.8" font-family="Times,serif" font-size="14.00">Sally</text>
</g>
<!-- joe&#45;&gt;sally -->
<g id="edge1" class="edge"><title>joe&#45;&gt;sally</title>
<path fill="none" stroke="black" d="M65.3743,-216.411C68.6046,-208.335 72.5662,-198.431 76.1968,-189.355"/>
<polygon fill="black" stroke="black" points="79.4919,-190.541 79.9562,-179.956 72.9926,-187.941 79.4919,-190.541"/>
</g>
<!-- frank -->
<g id="node3" class="node"><title>frank</title>
<ellipse fill="none" stroke="black" cx="30.7387" cy="-90" rx="30.9793" ry="18"/>
<text text-anchor="middle" x="30.7387" y="-85.8" font-family="Times,serif" font-size="14.00">Frank</text>
</g>
<!-- joe&#45;&gt;frank -->
<g id="edge2" class="edge"><title>joe&#45;&gt;frank</title>
<path fill="none" stroke="black" d="M55.3612,-215.871C50.5681,-191.564 41.7452,-146.819 36.0653,-118.013"/>
<polygon fill="black" stroke="black" points="39.4967,-117.323 34.1281,-108.189 32.6289,-118.677 39.4967,-117.323"/>
</g>
<!-- sally&#45;&gt;frank -->
<g id="edge4" class="edge"><title>sally&#45;&gt;frank</title>
<path fill="none" stroke="black" d="M74.3105,-145.465C66.9879,-136.311 57.5818,-124.554 49.3844,-114.307"/>
<polygon fill="black" stroke="black" points="52.1122,-112.114 43.1322,-106.492 46.6461,-116.487 52.1122,-112.114"/>
</g>
<!-- susan -->
<g id="node4" class="node"><title>susan</title>
<ellipse fill="none" stroke="black" cx="59.7387" cy="-18" rx="31.4723" ry="18"/>
<text text-anchor="middle" x="59.7387" y="-13.8" font-family="Times,serif" font-size="14.00">Susan</text>
</g>
<!-- sally&#45;&gt;susan -->
<g id="edge5" class="edge"><title>sally&#45;&gt;susan</title>
<path fill="none" stroke="black" d="M83.8067,-143.913C80.6963,-125.977 75.5733,-96.9688 70.7387,-72 69.1058,-63.5667 67.2366,-54.3989 65.508,-46.0961"/>
<polygon fill="black" stroke="black" points="68.9025,-45.2297 63.4221,-36.1624 62.0519,-46.6683 68.9025,-45.2297"/>
</g>
<!-- frank&#45;&gt;susan -->
<g id="edge3" class="edge"><title>frank&#45;&gt;susan</title>
<path fill="none" stroke="black" d="M37.6113,-72.411C40.957,-64.3352 45.0601,-54.4312 48.8203,-45.3547"/>
<polygon fill="black" stroke="black" points="52.12,-46.5344 52.714,-35.9562 45.653,-43.8552 52.12,-46.5344"/>
</g>
</g>
</svg>
