<?xml version="1.0" encoding="UTF-8" standalone="no"?>
<!DOCTYPE svg PUBLIC "-//W3C//DTD SVG 1.1//EN"
 "http://www.w3.org/Graphics/SVG/1.1/DTD/svg11.dtd">
<!-- Generated by graphviz version 2.38.0 (20140413.2041)
 -->
<!-- Title: my_graph Pages: 1 -->
<svg width="290pt" height="180pt"
 viewBox="0.00 0.00 289.95 180.00" xmlns="http://www.w3.org/2000/svg" xmlns:xlink="http://www.w3.org/1999/xlink">
<g id="graph0" class="graph" transform="scale(1 1) rotate(0) translate(4 176)">
<title>my_graph</title>
<polygon fill="white" stroke="none" points="-4,4 -4,-176 285.948,-176 285.948,4 -4,4"/>
<g id="clust1" class="cluster"><title>cluster_boys</title>
<polygon fill="none" stroke="black" points="8,-90 8,-164 175.477,-164 175.477,-90 8,-90"/>
<text text-anchor="middle" x="91.7387" y="-148.8" font-family="Times,serif" font-size="14.00">Boys</text>
</g>
<g id="clust2" class="cluster"><title>cluster_girls</title>
<polygon fill="none" stroke="black" points="100.453,-8 100.453,-82 273.948,-82 273.948,-8 100.453,-8"/>
<text text-anchor="middle" x="251.948" y="-66.8" font-family="Times,serif" font-size="14.00">Girls</text>
</g>
<!-- joe -->
<g id="node1" class="node"><title>joe</title>
<ellipse fill="none" stroke="black" cx="43" cy="-116" rx="27" ry="18"/>
<text text-anchor="middle" x="43" y="-111.8" font-family="Times,serif" font-size="14.00">Joe</text>
</g>
<!-- frank -->
<g id="node2" class="node"><title>frank</title>
<ellipse fill="none" stroke="black" cx="136.739" cy="-116" rx="30.9793" ry="18"/>
<text text-anchor="middle" x="136.739" y="-111.8" font-family="Times,serif" font-size="14.00">Frank</text>
</g>
<!-- joe&#45;&gt;frank -->
<g id="edge2" class="edge"><title>joe&#45;&gt;frank</title>
<path fill="none" stroke="black" d="M70.0432,-116C78.0388,-116 87.0296,-116 95.7339,-116"/>
<polygon fill="black" stroke="black" points="95.7437,-119.5 105.744,-116 95.7436,-112.5 95.7437,-119.5"/>
</g>
<!-- sally -->
<g id="node3" class="node"><title>sally</title>
<ellipse fill="none" stroke="black" cx="136.739" cy="-34" rx="28.0736" ry="18"/>
<text text-anchor="middle" x="136.739" y="-29.8" font-family="Times,serif" font-size="14.00">Sally</text>
</g>
<!-- joe&#45;&gt;sally -->
<g id="edge1" class="edge"><title>joe&#45;&gt;sally</title>
<path fill="none" stroke="black" d="M59.9797,-101.717C74.3616,-88.8615 95.6872,-69.7997 112.052,-55.1725"/>
<polygon fill="black" stroke="black" points="114.511,-57.6686 119.634,-48.3948 109.846,-52.4495 114.511,-57.6686"/>
</g>
<!-- susan -->
<g id="node4" class="node"><title>susan</title>
<ellipse fill="none" stroke="black" cx="234.713" cy="-34" rx="31.4723" ry="18"/>
<text text-anchor="middle" x="234.713" y="-29.8" font-family="Times,serif" font-size="14.00">Susan</text>
</g>
<!-- frank&#45;&gt;susan -->
<g id="edge3" class="edge"><title>frank&#45;&gt;susan</title>
<path fill="none" stroke="black" d="M155.953,-101.864C162.205,-96.9211 169.205,-91.2858 175.477,-86 186.875,-76.3945 199.227,-65.446 209.609,-56.0808"/>
<polygon fill="black" stroke="black" points="212.058,-58.5853 217.117,-49.2763 207.357,-53.3986 212.058,-58.5853"/>
</g>
<!-- sally&#45;&gt;frank -->
<g id="edge4" class="edge"><title>sally&#45;&gt;frank</title>
<path fill="none" stroke="black" d="M136.739,-52.2578C136.739,-63.941 136.739,-75.6242 136.739,-87.3075"/>
<polygon fill="black" stroke="black" points="133.239,-87.5745 136.739,-97.5745 140.239,-87.5746 133.239,-87.5745"/>
</g>
<!-- sally&#45;&gt;susan -->
<g id="edge5" class="edge"><title>sally&#45;&gt;susan</title>
<path fill="none" stroke="black" d="M165.241,-34C173.853,-34 183.55,-34 192.877,-34"/>
<polygon fill="black" stroke="black" points="193.174,-37.5001 203.174,-34 193.174,-30.5001 193.174,-37.5001"/>
</g>
</g>
</svg>
